<svg width="157" height="37" viewBox="0 0 157 37" fill="none" xmlns="http://www.w3.org/2000/svg">
<g clip-path="url(#clip0_496:853)">
<path d="M18.0248 0.822205C8.59468 0.822205 0.950195 8.28704 0.950195 17.4956C0.950195 26.7041 8.59468 34.169 18.0248 34.169C27.455 34.169 35.0994 26.7041 35.0994 17.4956C35.0994 8.28704 27.455 0.822205 18.0248 0.822205ZM19.5565 28.4634C19.5504 28.4634 19.5465 28.4634 19.5405 28.4634C19.5106 28.4634 19.4825 28.4536 19.4606 28.4342C19.4345 28.4127 19.4205 28.3794 19.4205 28.3462V23.7147C19.4205 23.6599 19.4586 23.6131 19.5126 23.6014C21.842 23.0664 23.6997 21.2504 24.2496 18.9737C24.2616 18.921 24.3095 18.8839 24.3655 18.8839H29.1066C29.1405 18.8839 29.1745 18.8976 29.1965 18.923C29.2186 18.9483 29.2305 18.9815 29.2246 19.0167C28.5567 23.9255 24.5795 27.8093 19.5565 28.4634ZM29.1126 16.2127C29.1106 16.2127 29.1086 16.2127 29.1066 16.2127H24.3635C24.3075 16.2127 24.2595 16.1756 24.2476 16.1228C23.5656 13.2915 21.0161 11.3155 18.0487 11.3155C14.5274 11.3155 11.6641 14.1117 11.6641 17.5502C11.6641 20.4479 13.6877 22.9376 16.5871 23.6033C16.6411 23.615 16.6791 23.6619 16.6791 23.7165V28.3482C16.6791 28.3814 16.665 28.4127 16.6391 28.4361C16.617 28.4556 16.5891 28.4653 16.559 28.4653C16.5531 28.4653 16.5491 28.4653 16.5431 28.4653C10.9662 27.737 6.76103 23.045 6.76103 17.5522C6.76103 11.4737 11.826 6.52775 18.0487 6.52775C23.6637 6.52775 28.4587 10.6185 29.2206 16.0468C29.2285 16.0623 29.2325 16.08 29.2325 16.0975C29.2325 16.16 29.1785 16.2127 29.1126 16.2127Z" fill="#333333"/>
<path d="M44.9434 17.5208C44.9434 15.9745 45.2433 14.5003 45.8452 13.0983C46.4471 11.6963 47.265 10.4857 48.3026 9.46641C49.3405 8.44715 50.5883 7.63486 52.05 7.02956C53.5097 6.42619 55.0613 6.12354 56.705 6.12354C58.3488 6.12354 59.8904 6.42815 61.3302 7.03736C62.7699 7.64658 64.0356 8.49791 65.1234 9.58942L62.6279 12.3309C61.0842 10.5716 59.1086 9.69096 56.7031 9.69096C55.2674 9.69096 53.9516 10.0483 52.7538 10.7649C51.5561 11.4815 50.6183 12.4402 49.9404 13.643C49.2625 14.8459 48.9226 16.1502 48.9226 17.5502C48.9226 18.962 49.2726 20.2624 49.9704 21.4515C50.6682 22.6406 51.6161 23.5818 52.8139 24.2711C54.0116 24.9624 55.3194 25.308 56.735 25.308C57.7748 25.308 58.8067 25.0834 59.8304 24.6343C60.8542 24.1851 61.7281 23.5975 62.4519 22.8731L64.7974 25.5989C63.7077 26.6241 62.4778 27.4265 61.1062 28.0066C59.7344 28.5864 58.2767 28.8773 56.733 28.8773C54.6055 28.8773 52.6398 28.3813 50.8362 27.3914C49.0326 26.4013 47.6009 25.0327 46.537 23.287C45.4752 21.5413 44.9434 19.62 44.9434 17.5208ZM67.3969 28.4849V6.50039H71.1382V15.4237C71.5041 15.1524 71.8141 14.9416 72.0659 14.7912C72.318 14.6408 72.7079 14.4905 73.2318 14.3402C73.7557 14.1898 74.3256 14.1137 74.9394 14.1137C75.7513 14.1137 76.5032 14.2347 77.1969 14.4768C77.8908 14.7189 78.5127 15.0801 79.0686 15.5644C79.6224 16.0487 80.0564 16.6989 80.3684 17.515C80.6802 18.3313 80.8363 19.2763 80.8363 20.3503V28.4849H77.0929V20.9537C77.0929 18.7334 76.0971 17.6224 74.1076 17.6224C72.128 17.6224 71.1382 18.714 71.1382 20.8951V28.4829H67.3969V28.4849ZM84.0896 11.3585C83.6336 10.9133 83.4057 10.3685 83.4057 9.72025C83.4057 9.07198 83.6336 8.52916 84.0896 8.08786C84.5455 7.64853 85.1094 7.42788 85.7833 7.42788C86.4472 7.42788 87.001 7.64463 87.4469 8.08005C87.8928 8.51549 88.1148 9.06221 88.1148 9.7183C88.1148 10.3763 87.8928 10.925 87.4469 11.3644C87.001 11.8037 86.4472 12.0244 85.7833 12.0244C85.1094 12.0263 84.5435 11.8037 84.0896 11.3585ZM83.8957 28.4849V14.3752H87.6369V28.4849H83.8957ZM91.0103 35.9965V14.3752H94.7514V15.4237C95.8512 14.551 97.1871 14.1137 98.7607 14.1137C100.884 14.1137 102.69 14.8303 104.178 16.2616C105.666 17.6928 106.409 19.4345 106.409 21.4867C106.409 22.8203 106.071 24.0544 105.393 25.1888C104.716 26.3233 103.789 27.2215 102.614 27.8834C101.438 28.5453 100.154 28.8754 98.7607 28.8754C97.1871 28.8754 95.8492 28.4399 94.7514 27.5711V35.9965H91.0103ZM94.7535 21.6605C94.8034 22.6738 95.2154 23.5448 95.9932 24.2731C96.7711 25.0014 97.6929 25.3666 98.7626 25.3666C99.8525 25.3666 100.787 24.9839 101.57 24.2165C102.352 23.4491 102.744 22.5391 102.744 21.4886C102.744 20.446 102.352 19.5419 101.57 18.7745C100.789 18.0071 99.8525 17.6244 98.7626 17.6244C97.6929 17.6244 96.7711 17.9915 95.9932 18.7237C95.2154 19.458 94.8034 20.3249 94.7535 21.3286V21.6605ZM108.549 35.9965V14.3752H112.29V15.4237C113.39 14.551 114.725 14.1137 116.299 14.1137C118.423 14.1137 120.228 14.8303 121.716 16.2616C123.203 17.6928 123.948 19.4345 123.948 21.4867C123.948 22.8203 123.61 24.0544 122.932 25.1888C122.255 26.3233 121.328 27.2215 120.152 27.8834C118.977 28.5453 117.692 28.8754 116.299 28.8754C114.725 28.8754 113.388 28.4399 112.29 27.5711V35.9965H108.549ZM112.292 21.6605C112.342 22.6738 112.753 23.5448 113.532 24.2731C114.309 25.0014 115.231 25.3666 116.301 25.3666C117.391 25.3666 118.326 24.9839 119.109 24.2165C119.891 23.4491 120.282 22.5391 120.282 21.4886C120.282 20.446 119.891 19.5419 119.109 18.7745C118.327 18.0071 117.391 17.6244 116.301 17.6244C115.231 17.6244 114.309 17.9915 113.532 18.7237C112.753 19.458 112.342 20.3249 112.292 21.3286V21.6605ZM125.391 21.5668C125.391 20.5709 125.567 19.622 125.919 18.7179C126.271 17.8138 126.763 17.021 127.397 16.3396C128.031 15.6582 128.821 15.1173 129.764 14.7151C130.711 14.3147 131.743 14.1137 132.86 14.1137C134.245 14.1137 135.498 14.4515 136.618 15.129C137.735 15.8065 138.602 16.7028 139.216 17.8197C139.83 18.9365 140.137 20.157 140.137 21.4808C140.137 21.8967 140.106 22.2834 140.047 22.6406H129.029C129.246 23.5251 129.708 24.232 130.417 24.7612C131.124 25.2903 132.002 25.554 133.052 25.554C133.745 25.554 134.407 25.4251 135.042 25.1655C135.676 24.9057 136.196 24.5152 136.601 23.9958L139.154 25.9758C138.5 26.8797 137.635 27.5866 136.556 28.1022C135.476 28.6158 134.319 28.8734 133.08 28.8734C131.654 28.8734 130.352 28.5552 129.174 27.9167C127.997 27.2781 127.07 26.3995 126.397 25.2767C125.73 24.1579 125.391 22.9199 125.391 21.5668ZM129.165 19.9578H136.366C136.259 19.2432 135.867 18.6437 135.193 18.1594C134.52 17.6772 133.734 17.4351 132.832 17.4351C131.97 17.4351 131.214 17.6655 130.561 18.1242C129.907 18.5832 129.44 19.1944 129.165 19.9578ZM142.464 28.4849V14.3752H146.205V15.4237C146.897 14.9201 147.643 14.5744 148.441 14.391C149.239 14.2073 150.344 14.1137 151.76 14.1137V17.6224C150.82 17.6224 150.015 17.6752 149.346 17.7826C148.679 17.888 148.141 18.0365 147.735 18.2239C147.329 18.4113 147.013 18.671 146.784 18.999C146.558 19.3271 146.402 19.6727 146.325 20.034C146.245 20.3953 146.207 20.8385 146.207 21.3598V28.4849H142.464ZM151.76 8.50182C151.76 8.23236 151.814 7.97461 151.921 7.73054C152.031 7.48646 152.175 7.27557 152.356 7.09985C152.538 6.92412 152.754 6.78352 153.003 6.68002C153.256 6.57655 153.518 6.52383 153.792 6.52383C154.066 6.52383 154.327 6.57655 154.578 6.68002C154.828 6.78547 155.042 6.92606 155.22 7.10179C155.402 7.27754 155.545 7.49036 155.651 7.73444C155.757 7.97852 155.812 8.23236 155.812 8.49791C155.812 8.76347 155.757 9.01731 155.651 9.26335C155.543 9.50936 155.402 9.72025 155.219 9.89794C155.039 10.0756 154.824 10.2162 154.573 10.3236C154.324 10.4291 154.061 10.4818 153.786 10.4818C153.419 10.4818 153.083 10.3939 152.77 10.2182C152.46 10.0424 152.212 9.80226 152.031 9.49765C151.85 9.19304 151.76 8.8611 151.76 8.50182ZM152.142 8.50182C152.142 8.71661 152.184 8.91967 152.269 9.11495C152.356 9.31021 152.472 9.47813 152.619 9.62067C152.764 9.7632 152.938 9.87646 153.142 9.96237C153.346 10.0463 153.56 10.0893 153.788 10.0893C154.087 10.0893 154.366 10.0171 154.617 9.87451C154.87 9.73198 155.07 9.53866 155.213 9.29457C155.359 9.05246 155.432 8.7869 155.432 8.49987C155.432 8.20894 155.359 7.93751 155.213 7.68953C155.07 7.44155 154.87 7.24238 154.613 7.09594C154.36 6.94949 154.081 6.8753 153.782 6.8753C153.481 6.8753 153.205 6.94949 152.953 7.09594C152.702 7.24238 152.504 7.4396 152.359 7.68953C152.214 7.93751 152.142 8.20894 152.142 8.50182ZM152.992 9.62262V7.3693H153.696C153.784 7.3693 153.86 7.37126 153.922 7.37321C153.984 7.37516 154.053 7.38298 154.131 7.39274C154.211 7.4025 154.276 7.41617 154.327 7.43375C154.381 7.45132 154.435 7.47474 154.49 7.50794C154.544 7.53919 154.587 7.57823 154.621 7.62119C154.655 7.66415 154.681 7.71883 154.704 7.78521C154.724 7.85161 154.736 7.9258 154.736 8.0078C154.736 8.37099 154.545 8.5936 154.164 8.67951L154.736 9.62848H154.274L153.722 8.71076H153.377V9.62457H152.992V9.62262ZM153.377 8.37295H153.798C153.88 8.37295 153.951 8.36905 154.01 8.36123C154.067 8.35343 154.123 8.33975 154.177 8.31632C154.23 8.29484 154.27 8.2597 154.298 8.21283C154.326 8.16597 154.34 8.10739 154.34 8.03515C154.34 7.90628 154.296 7.8184 154.206 7.77545C154.115 7.73249 153.979 7.70906 153.798 7.70906H153.377V8.37295Z" fill="#333333"/>
</g>
<defs>
<clipPath id="clip0_496:853">
<rect width="156.283" height="36.0654" fill="white" transform="translate(0.438477 0.822266)"/>
</clipPath>
</defs>
</svg>
