<svg width="169" height="36" viewBox="0 0 169 36" fill="none" xmlns="http://www.w3.org/2000/svg">
<g clip-path="url(#clip0_496:877)">
<path d="M169 16.218V13.2665H165.309V8.67796L165.185 8.71595L161.718 9.76929L161.65 9.7899V13.2667H156.178V11.3298C156.178 10.4279 156.381 9.73779 156.782 9.27752C157.179 8.82278 157.748 8.59159 158.473 8.59159C158.994 8.59159 159.533 8.71352 160.076 8.95396L160.213 9.01435V5.90597L160.149 5.8826C159.642 5.70174 158.953 5.61066 158.099 5.61066C157.022 5.61066 156.044 5.84331 155.191 6.30438C154.337 6.76611 153.666 7.42526 153.196 8.26332C152.727 9.1004 152.489 10.0672 152.489 11.1371V13.2665H149.919V16.218H152.489V28.6524H156.178V16.218H161.65V24.1198C161.65 27.3742 163.196 29.0233 166.244 29.0233C166.745 29.0233 167.272 28.9651 167.811 28.8509C168.359 28.7337 168.732 28.6167 168.952 28.4916L169 28.4631V25.4842L168.85 25.5828C168.65 25.7153 168.401 25.8236 168.108 25.9041C167.815 25.9861 167.569 26.0271 167.379 26.0271C166.665 26.0271 166.137 25.8361 165.809 25.4589C165.478 25.0784 165.309 24.4129 165.309 23.482V16.218H169ZM141.68 26.0276C140.341 26.0276 139.285 25.5867 138.541 24.7181C137.793 23.8451 137.413 22.6006 137.413 21.0193C137.413 19.3878 137.793 18.1109 138.542 17.2225C139.286 16.34 140.332 15.892 141.65 15.892C142.929 15.892 143.948 16.3198 144.677 17.1642C145.41 18.013 145.782 19.2797 145.782 20.9301C145.782 22.6009 145.433 23.8843 144.743 24.7428C144.057 25.5948 143.027 26.0276 141.68 26.0276ZM141.844 12.8958C139.289 12.8958 137.26 13.6393 135.813 15.1054C134.368 16.5718 133.635 18.601 133.635 21.1373C133.635 23.5463 134.35 25.4839 135.762 26.8956C137.173 28.3077 139.094 29.023 141.471 29.023C143.947 29.023 145.936 28.2692 147.382 26.7827C148.828 25.2979 149.561 23.2878 149.561 20.8108C149.561 18.3642 148.873 16.4121 147.517 15.0098C146.16 13.6069 144.251 12.8958 141.844 12.8958ZM127.686 12.8958C125.948 12.8958 124.511 13.3373 123.413 14.2076C122.308 15.0832 121.748 16.2315 121.748 17.6211C121.748 18.3434 121.869 18.985 122.107 19.5292C122.346 20.0752 122.717 20.5559 123.209 20.9594C123.698 21.3595 124.452 21.7787 125.452 22.2052C126.292 22.5486 126.919 22.8391 127.317 23.068C127.706 23.2923 127.982 23.5178 128.138 23.7375C128.289 23.9525 128.366 24.2466 128.366 24.6097C128.366 25.6433 127.587 26.1463 125.983 26.1463C125.388 26.1463 124.709 26.0229 123.966 25.7797C123.228 25.5402 122.531 25.1894 121.9 24.7397L121.747 24.6306V28.158L121.803 28.184C122.325 28.4233 122.984 28.6251 123.759 28.7839C124.534 28.9428 125.237 29.0237 125.848 29.0237C127.734 29.0237 129.253 28.5801 130.361 27.7046C131.476 26.823 132.041 25.6476 132.041 24.2099C132.041 23.1728 131.737 22.2835 131.137 21.5662C130.541 20.8548 129.508 20.2017 128.066 19.6243C126.917 19.1665 126.182 18.7864 125.878 18.4947C125.585 18.2129 125.437 17.8143 125.437 17.3095C125.437 16.8621 125.62 16.5036 125.997 16.2133C126.376 15.9216 126.904 15.7732 127.567 15.7732C128.181 15.7732 128.81 15.8696 129.436 16.0586C130.061 16.2476 130.61 16.5007 131.068 16.8103L131.219 16.9126V13.5665L131.161 13.5418C130.738 13.3618 130.181 13.2077 129.504 13.0827C128.829 12.9585 128.218 12.8958 127.686 12.8958ZM112.13 26.0276C110.791 26.0276 109.735 25.5867 108.991 24.7181C108.242 23.8451 107.864 22.6009 107.864 21.0193C107.864 19.3878 108.243 18.1109 108.992 17.2225C109.736 16.34 110.781 15.892 112.1 15.892C113.379 15.892 114.397 16.3198 115.127 17.1642C115.86 18.013 116.232 19.2797 116.232 20.9301C116.232 22.6009 115.882 23.8843 115.192 24.7428C114.507 25.5948 113.477 26.0276 112.13 26.0276ZM112.294 12.8958C109.739 12.8958 107.709 13.6393 106.263 15.1054C104.818 16.5718 104.084 18.601 104.084 21.1373C104.084 23.5472 104.8 25.4839 106.212 26.8956C107.623 28.3077 109.544 29.023 111.92 29.023C114.397 29.023 116.386 28.2692 117.832 26.7827C119.278 25.2979 120.011 23.2878 120.011 20.8108C120.011 18.3642 119.323 16.4121 117.966 15.0098C116.609 13.6069 114.7 12.8958 112.294 12.8958ZM98.4838 15.931V13.2665H94.8394V28.652H98.4838V20.7817C98.4838 19.4435 98.7893 18.344 99.3922 17.5136C99.9875 16.6931 100.781 16.2773 101.749 16.2773C102.077 16.2773 102.446 16.331 102.845 16.4374C103.24 16.5431 103.526 16.6579 103.695 16.7786L103.848 16.8889V13.2402L103.789 13.215C103.45 13.0718 102.969 12.9996 102.362 12.9996C101.446 12.9996 100.627 13.2918 99.9245 13.8672C99.3084 14.3729 98.863 15.0663 98.5225 15.931H98.4838ZM88.313 12.8958C86.641 12.8958 85.1498 13.2519 83.8813 13.9537C82.6102 14.6572 81.6272 15.6615 80.9584 16.9386C80.2925 18.2125 79.9544 19.7006 79.9544 21.3602C79.9544 22.8139 80.2822 24.1479 80.9301 25.3237C81.5783 26.5014 82.4958 27.4227 83.6572 28.0617C84.8169 28.6999 86.1573 29.0235 87.6414 29.0235C89.3733 29.0235 90.8521 28.6796 92.0376 28.0015L92.0855 27.9742V24.6585L91.9324 24.7696C91.3953 25.1581 90.7952 25.4682 90.1494 25.6916C89.5053 25.9148 88.918 26.0276 88.4031 26.0276C86.9731 26.0276 85.8251 25.5833 84.9918 24.7072C84.1568 23.83 83.7333 22.5983 83.7333 21.0483C83.7333 19.4886 84.1749 18.2252 85.0451 17.293C85.9127 16.3635 87.0628 15.892 88.4632 15.892C89.6611 15.892 90.8283 16.2948 91.9327 17.0904L92.0855 17.2006V13.707L92.0362 13.6794C91.6206 13.4483 91.0538 13.2576 90.3502 13.1129C89.6495 12.9686 88.9641 12.8958 88.313 12.8958ZM77.4445 13.2667H73.8001V28.652H77.4445V13.2667ZM75.6596 6.71237C75.0597 6.71237 74.5366 6.91515 74.1068 7.31697C73.6752 7.71993 73.4563 8.22727 73.4563 8.82602C73.4563 9.41536 73.6726 9.91345 74.1001 10.3057C74.5248 10.6968 75.0496 10.895 75.6597 10.895C76.2697 10.895 76.7964 10.6968 77.2262 10.3063C77.6588 9.91345 77.8782 9.41552 77.8782 8.82602C77.8782 8.24822 77.6647 7.74606 77.244 7.3332C76.8237 6.92116 76.2904 6.71237 75.6596 6.71237ZM66.5666 12.1315V28.652H70.2859V7.18335H65.1383L58.5954 23.1297L52.2459 7.18335H46.8887V28.6519H50.3838V12.1299H50.5038L57.2087 28.652H59.8463L66.4466 12.1315H66.5666Z" fill="#333333"/>
<path d="M17.1441 17.0358H0V0.0103149H17.1441V17.0358Z" fill="#333333"/>
<path d="M36.0735 17.0346H18.9297V0.00915527H36.0735V17.0346Z" fill="#333333"/>
<path d="M17.1437 35.8393H0V18.814H17.1437V35.8393Z" fill="#333333"/>
<path d="M36.0735 35.8393H18.9297V18.814H36.0735V35.8393Z" fill="#333333"/>
</g>
<defs>
<clipPath id="clip0_496:877">
<rect width="169" height="35.8485" fill="white"/>
</clipPath>
</defs>
</svg>
