<svg width="89" height="37" viewBox="0 0 89 37" fill="none" xmlns="http://www.w3.org/2000/svg">
<g clip-path="url(#clip0_496:861)">
<path d="M44.0541 36.8876C68.2205 36.8876 87.8093 28.8124 87.8093 18.8579C87.8093 8.89745 68.2205 0.822266 44.0541 0.822266C19.8877 0.822266 0.292969 8.89745 0.292969 18.8579C0.292969 28.8124 19.8877 36.8876 44.0541 36.8876Z" fill="#333333"/>
<path d="M55.0038 14.4091L56.1498 9.84009H41.2107L40.0708 14.4091H44.9605L42.5606 24.0093H47.7083L50.1082 14.4091H55.0038Z" fill="white"/>
<path d="M39.9268 9.84009H32.4753L27.7296 20.3409V9.84009H20.5121L15.9944 27.8697H20.956L23.8959 16.2342V27.8697H27.7296L33.3752 16.2342L30.6694 27.8697H35.4091L39.9268 9.84009Z" fill="white"/>
<path d="M72.1087 9.84009H67.369L64.8912 19.4343L62.6293 9.84009H57.4336L52.9219 27.8697H57.6676L60.1454 18.0594L62.6293 27.8697H67.597L72.1087 9.84009Z" fill="white"/>
<path d="M42.2368 25.2941L41.5889 27.8698H46.7425L47.3845 25.2941H42.2368Z" fill="white"/>
</g>
<defs>
<clipPath id="clip0_496:861">
<rect width="87.8113" height="36.0654" fill="white" transform="translate(0.292969 0.822266)"/>
</clipPath>
</defs>
</svg>
