<svg width="175" height="34" viewBox="0 0 175 34" fill="none" xmlns="http://www.w3.org/2000/svg">
<g clip-path="url(#clip0_4927_4888)">
<path d="M46.8338 26.9611V33.2459H42.8921V12.7864H46.8338V13.7653C48.0077 13.002 49.3753 12.5902 50.7755 12.5784C55.2515 12.5784 58.5428 16.1368 58.5428 20.3763C58.5428 24.6158 55.2821 28.1743 50.7755 28.1743C49.3693 28.1766 47.9953 27.7538 46.8338 26.9611V26.9611ZM46.8338 18.5106V22.1282C47.1447 22.7902 47.6279 23.3565 48.2328 23.7677C48.8377 24.1789 49.542 24.4199 50.272 24.4655C51.002 24.5111 51.7308 24.3597 52.3822 24.0269C53.0336 23.6942 53.5835 23.1925 53.9744 22.5743C54.3654 21.9562 54.5829 21.2442 54.6043 20.5131C54.6257 19.782 54.4501 19.0586 54.096 18.4186C53.7419 17.7787 53.2222 17.2457 52.5914 16.8754C51.9606 16.5052 51.2419 16.3114 50.5105 16.3142C49.7543 16.3035 49.01 16.5033 48.3607 16.8911C47.7115 17.279 47.1828 17.8397 46.8338 18.5106V18.5106Z" fill="#333333"/>
<path d="M60.6778 8.66293C60.6649 8.36456 60.7132 8.06671 60.8197 7.78769C60.9262 7.50867 61.0886 7.25438 61.297 7.04045C61.5054 6.82652 61.7553 6.65748 62.0315 6.54372C62.3076 6.42996 62.6041 6.37389 62.9027 6.37894C63.2054 6.37369 63.5061 6.42897 63.7872 6.54153C64.0683 6.65409 64.324 6.82168 64.5394 7.03444C64.7548 7.2472 64.9256 7.50085 65.0416 7.7805C65.1576 8.06015 65.2166 8.36017 65.2151 8.66293C65.2088 9.27185 64.9623 9.85363 64.5292 10.2818C64.0962 10.7099 63.5116 10.9497 62.9027 10.9491C62.6057 10.9477 62.312 10.8872 62.0387 10.7711C61.7653 10.6549 61.5179 10.4855 61.3108 10.2726C61.1036 10.0598 60.941 9.80786 60.8323 9.53148C60.7237 9.2551 60.6711 8.95984 60.6778 8.66293ZM60.9165 12.7864H64.9195V27.9378H60.9165V12.7864Z" fill="#333333"/>
<path d="M67.2891 20.3194C67.2811 19.2996 67.477 18.2885 67.8654 17.3456C68.2537 16.4026 68.8267 15.5468 69.5505 14.8285C70.2744 14.1101 71.1345 13.5437 72.0804 13.1626C73.0263 12.7814 74.0389 12.5932 75.0586 12.609C76.4527 12.6097 77.825 12.9558 79.0528 13.6163V12.7864H82.9682V27.0772C82.9682 31.0189 79.5564 33.1562 75.2885 33.1562C72.5008 33.1562 69.8314 32.3262 68.0818 30.9663L69.7132 28.1502C71.376 29.2155 73.3138 29.7719 75.2885 29.751C78.0455 29.751 78.9061 28.6561 79.0243 26.8757C77.8367 27.6354 76.4595 28.0459 75.0498 28.0604C70.5125 28.056 67.2891 24.6771 67.2891 20.3194ZM79.0528 22.0077V18.6288C78.7216 17.9238 78.1977 17.3269 77.5417 16.9068C76.8857 16.4868 76.1243 16.2609 75.3454 16.2551C74.8075 16.2499 74.2739 16.351 73.7753 16.5527C73.2767 16.7544 72.8228 17.0527 72.4398 17.4304C72.0568 17.8081 71.7523 18.2578 71.5436 18.7536C71.335 19.2494 71.2265 19.7815 71.2242 20.3194C71.2242 22.6603 73.0023 24.2917 75.3169 24.2917C76.0936 24.312 76.8596 24.1071 77.5224 23.7019C78.1853 23.2966 78.7168 22.7083 79.0528 22.0077V22.0077Z" fill="#333333"/>
<path d="M85.3442 20.3194C85.3362 19.2996 85.5322 18.2885 85.9205 17.3456C86.3089 16.4026 86.8818 15.5468 87.6057 14.8285C88.3296 14.1101 89.1897 13.5437 90.1356 13.1626C91.0815 12.7814 92.0941 12.5932 93.1137 12.609C94.5108 12.6085 95.8863 12.9546 97.1167 13.6163V12.7864H101.03V27.0772C101.03 31.0189 97.6204 33.1562 93.3524 33.1562C90.5648 33.1562 87.8954 32.3262 86.1457 30.9663L87.7771 28.1502C89.4398 29.2158 91.3777 29.7722 93.3524 29.751C96.1094 29.751 96.97 28.6561 97.0883 26.8757C95.9005 27.6351 94.5234 28.0455 93.1137 28.0604C88.5764 28.056 85.3442 24.6771 85.3442 20.3194ZM97.1167 22.0077V18.6288C96.7853 17.924 96.2614 17.3272 95.6055 16.9072C94.9495 16.4872 94.1882 16.2611 93.4094 16.2551C92.8715 16.2499 92.3379 16.351 91.8393 16.5527C91.3406 16.7544 90.8867 17.0527 90.5038 17.4304C90.1208 17.8081 89.8162 18.2578 89.6076 18.7536C89.399 19.2494 89.2904 19.7815 89.2881 20.3194C89.2881 22.6603 91.0662 24.2917 93.3809 24.2917C94.1575 24.3117 94.9233 24.1067 95.5861 23.7015C96.249 23.2963 96.7805 22.7081 97.1167 22.0077Z" fill="#333333"/>
<path d="M106.78 12.7864L110.755 22.8968L114.845 12.7864H119.006L110.28 33.2459H106.574L108.764 27.7911L102.394 12.7864H106.78Z" fill="#333333"/>
<path d="M118.251 12.7864H122.49L126.353 23.0172L130.179 12.7864H134.339L128.26 27.9378H124.273L118.251 12.7864Z" fill="#333333"/>
<path d="M134.62 20.2581C134.62 15.9901 137.672 12.4601 142.446 12.4601C146.865 12.4601 150.222 15.7821 150.303 20.1464C150.334 20.5217 150.334 20.8989 150.303 21.2742H138.355C138.474 23.4093 140.519 24.802 142.713 24.802C144.522 24.802 145.588 24.2983 146.834 23.2691L149 25.5531C147.248 27.3904 145.496 28.251 142.713 28.251C137.585 28.2357 134.62 24.41 134.62 20.2581ZM138.561 18.4493H146.213C145.827 17.0281 144.461 15.7821 142.387 15.7821C139.985 15.7821 138.977 16.9975 138.561 18.4493Z" fill="#333333"/>
<path d="M151.131 26.3086L153.069 23.164C154.808 24.3234 156.847 24.9518 158.938 24.9728C160.926 24.9728 161.933 24.4691 161.933 23.6107C161.933 23.0457 161.458 22.6319 160.451 22.4238L156.29 21.5347C153.237 20.8778 151.843 19.4303 151.843 17.0587C151.843 14.5383 153.978 12.4316 158.397 12.4316C161.064 12.4316 163.433 13.2046 165.067 14.212L163.258 17.2361C161.925 16.5244 160.146 15.7536 158.276 15.7536C156.588 15.7536 155.609 16.1697 155.609 16.9383C155.609 17.4442 155.966 17.7704 156.943 17.9478L160.446 18.6048C164.241 19.3449 165.702 21.0355 165.702 23.3195C165.702 26.6042 162.417 28.3298 158.822 28.3298C156.12 28.382 153.457 27.6822 151.131 26.3086V26.3086Z" fill="#333333"/>
<path d="M166.49 12.7864H168.744V8.60603L172.685 6.05707V12.7864H174.998V16.2266H172.687V27.94H168.746V16.2266H166.488V12.7864H166.49Z" fill="#333333"/>
<path d="M33.0226 15.2237C32.9568 14.2619 32.7992 13.3086 32.5518 12.3769C31.424 8.21623 29.048 4.94244 25.4261 2.6059C23.1447 1.12218 20.5242 0.241416 17.8099 0.0459914C16.6695 -0.0373035 15.5236 -0.00649304 14.3893 0.137964C13.1944 0.296125 12.0198 0.581698 10.8856 0.989807C7.86544 2.07924 5.22954 4.02768 3.30215 6.59546C1.37475 9.16325 0.239915 12.2384 0.0372271 15.4427C0 16.0317 0 16.6252 0 17.2164V31.5904C0 31.9639 0.148349 32.322 0.412411 32.5861C0.676473 32.8502 1.03462 32.9985 1.40806 32.9985H6.96146C7.309 32.9964 7.64366 32.8668 7.90199 32.6343C8.16032 32.4018 8.32434 32.0826 8.36295 31.7372V31.7372C8.39949 31.6022 8.41862 31.4631 8.41988 31.3233V30.9904C8.41661 30.965 8.41661 30.9392 8.41988 30.9138V30.8766C8.45776 30.8866 8.49342 30.9037 8.52499 30.9269C10.6022 32.0756 12.9027 32.7628 15.2697 32.9416C16.2177 33.0117 17.17 33.0022 18.1164 32.9131C20.3445 32.7079 22.5069 32.0487 24.4706 30.9761C26.4342 29.9035 28.1575 28.4403 29.5342 26.6765C31.4965 24.208 32.6973 21.2213 32.9897 18.0814C33.0888 17.1319 33.0998 16.1752 33.0226 15.2237V15.2237ZM19.4895 24.4078C19.4797 24.4584 19.4523 24.504 19.4123 24.5364C19.3722 24.5688 19.322 24.5861 19.2705 24.5852H13.7959C13.7444 24.5861 13.6941 24.5688 13.6541 24.5364C13.614 24.504 13.5867 24.4584 13.5769 24.4078V24.3728V24.1691C13.5757 23.9178 13.6036 23.6672 13.6601 23.4224C13.6952 23.3392 13.7171 23.2406 13.7521 23.1487C13.7871 23.0567 13.8222 22.9713 13.8572 22.8815C13.8923 22.7917 13.9492 22.7107 13.9974 22.6341L14.0762 22.5158C14.1277 22.4393 14.184 22.3661 14.2448 22.2968C14.3083 22.218 14.3718 22.1501 14.4353 22.0778C14.7648 21.7538 15.1651 21.5109 15.6047 21.3683C15.2261 21.1622 14.9268 20.8359 14.754 20.4408C14.5812 20.0458 14.5448 19.6046 14.6504 19.1866C14.756 18.7686 14.9977 18.3976 15.3374 18.1321C15.6771 17.8666 16.0955 17.7216 16.5266 17.7201C17.0414 17.724 17.5342 17.9291 17.8996 18.2916C18.1112 18.5045 18.2705 18.7637 18.365 19.0486C18.4594 19.3335 18.4865 19.6364 18.4441 19.9336C18.4016 20.2307 18.2908 20.514 18.1203 20.761C17.9499 21.0081 17.7244 21.2122 17.4617 21.3574C18.053 21.5523 18.5676 21.9292 18.9318 22.4342C19.296 22.9392 19.4912 23.5465 19.4895 24.1691C19.4895 24.248 19.4895 24.3334 19.4895 24.4078ZM28.9276 12.482H4.14753C4.10108 12.4817 4.05537 12.4704 4.01416 12.4489C3.97295 12.4275 3.93741 12.3966 3.91048 12.3588C3.88354 12.3209 3.86597 12.2772 3.85921 12.2313C3.85246 12.1853 3.85671 12.1384 3.87161 12.0944C4.79624 9.47407 6.51088 7.20503 8.77918 5.60005C11.0475 3.99507 13.7578 3.13318 16.5365 3.13318C19.3152 3.13318 22.0255 3.99507 24.2938 5.60005C26.5621 7.20503 28.2767 9.47407 29.2013 12.0944C29.2162 12.1382 29.2205 12.1849 29.2138 12.2307C29.2072 12.2765 29.1898 12.3201 29.1631 12.3579C29.1364 12.3957 29.1012 12.4266 29.0603 12.4482C29.0193 12.4698 28.9739 12.4814 28.9276 12.482V12.482Z" fill="#333333"/>
</g>
<defs>
<clipPath id="clip0_4927_4888">
<rect width="175" height="33.2459" fill="white"/>
</clipPath>
</defs>
</svg>
