<svg width="102" height="37" viewBox="0 0 102 37" fill="none" xmlns="http://www.w3.org/2000/svg">
<path d="M5.86606 26.2038C6.29692 27.3518 6.89346 28.3334 7.65576 29.1487C8.41804 29.9639 9.32115 30.5878 10.365 31.0204C11.409 31.453 12.5441 31.6693 13.7704 31.6693C14.9636 31.6693 16.082 31.4447 17.126 30.9954C18.1701 30.5461 19.0814 29.9138 19.8602 29.0987C20.639 28.2835 21.2439 27.3102 21.6748 26.1788C22.1057 25.0475 22.321 23.783 22.321 22.3853V0.822754H27.5408V35.7621H22.3707V32.5177C21.2107 33.7488 19.8436 34.6972 18.2694 35.3628C16.6951 36.0283 14.9967 36.3611 13.1739 36.3611C11.3179 36.3611 9.58625 36.0366 7.97881 35.3877C6.37151 34.7389 4.97946 33.8156 3.80302 32.6175C2.62657 31.4197 1.6985 29.9806 1.01915 28.3002C0.339678 26.6197 0 24.748 0 22.6848V0.822754H5.21981V22.3853C5.21981 23.783 5.43518 25.0557 5.86606 26.2038Z" fill="#333333"/>
<path d="M36.5398 0.822266V13.5502C37.6996 12.3855 39.0419 11.4622 40.5665 10.78C42.0909 10.0978 43.748 9.75674 45.5376 9.75674C47.3937 9.75674 49.1334 10.1061 50.7575 10.8048C52.3814 11.5036 53.7898 12.452 54.983 13.65C56.1761 14.848 57.1206 16.2621 57.8167 17.8926C58.5127 19.5232 58.8606 21.2536 58.8606 23.0837C58.8606 24.9137 58.5127 26.6358 57.8167 28.2496C57.1206 29.8635 56.1761 31.2695 54.983 32.4672C53.7898 33.6653 52.3814 34.6136 50.7575 35.3123C49.1334 36.0111 47.3936 36.3605 45.5376 36.3605C43.7479 36.3605 42.0827 36.0195 40.5415 35.3372C39.0005 34.6552 37.6499 33.7317 36.4899 32.567V35.7616H31.5188V0.822266H36.5398ZM37.1113 26.5277C37.5588 27.5925 38.1802 28.5242 38.9756 29.3228C39.771 30.1215 40.699 30.7537 41.7595 31.2197C42.8201 31.6855 43.9635 31.9184 45.1898 31.9184C46.3829 31.9184 47.5096 31.6855 48.5702 31.2197C49.6306 30.7537 50.5502 30.1216 51.3292 29.3228C52.108 28.5243 52.7294 27.5925 53.1934 26.5277C53.6573 25.4628 53.8894 24.315 53.8894 23.0837C53.8894 21.8524 53.6573 20.6961 53.1934 19.6146C52.7294 18.5332 52.108 17.5932 51.3292 16.7945C50.5504 15.996 49.6308 15.372 48.5702 14.9229C47.5095 14.4737 46.3827 14.2489 45.1898 14.2489C43.9967 14.2489 42.8698 14.4736 41.8094 14.9229C40.7488 15.3721 39.8209 15.996 39.0253 16.7945C38.23 17.5932 37.6003 18.5332 37.1364 19.6146C36.6724 20.6961 36.4403 21.8524 36.4403 23.0837C36.4402 24.315 36.6639 25.4628 37.1113 26.5277Z" fill="#333333"/>
<path d="M61.6921 17.9426C62.3549 16.3453 63.2663 14.9394 64.4262 13.7249C65.586 12.5103 66.9616 11.5537 68.5525 10.8549C70.1433 10.1561 71.8667 9.80676 73.7225 9.80676C75.5453 9.80676 77.2356 10.1395 78.7933 10.805C80.351 11.4705 81.6932 12.3939 82.8199 13.5752C83.9468 14.7564 84.8252 16.1542 85.4547 17.768C86.0844 19.3818 86.3993 21.1372 86.3993 23.0339V24.6811H65.7685C65.9344 25.7126 66.2657 26.6693 66.7629 27.5509C67.2601 28.4327 67.8814 29.1981 68.6271 29.847C69.3727 30.4959 70.2178 31.0033 71.1623 31.3694C72.107 31.7354 73.1094 31.9185 74.17 31.9185C77.186 31.9185 79.622 30.6705 81.4779 28.1748L85.1068 30.8702C83.8474 32.5673 82.2899 33.8982 80.4339 34.8632C78.5779 35.8281 76.49 36.3107 74.1702 36.3107C72.2809 36.3107 70.5163 35.9779 68.8758 35.3124C67.2352 34.6469 65.8102 33.7151 64.6005 32.5172C63.3908 31.3192 62.438 29.9133 61.7421 28.2995C61.0461 26.6857 60.698 24.9303 60.698 23.0337C60.6979 21.2368 61.0293 19.5397 61.6921 17.9426ZM68.6768 15.9709C67.2681 17.1521 66.332 18.7245 65.8681 20.6877H81.3287C80.8979 18.7245 79.9781 17.1521 78.5696 15.9709C77.1611 14.7897 75.5122 14.199 73.6233 14.199C71.734 14.199 70.0853 14.7897 68.6768 15.9709Z" fill="#333333"/>
<path d="M95.7951 16.5448C94.7345 17.7095 94.2042 19.29 94.2042 21.2867V35.7616H89.1831V10.3058H94.1544V13.4503C94.7841 12.4188 95.6044 11.6035 96.6152 11.0045C97.626 10.4055 98.8274 10.106 100.219 10.106H101.959V14.7978H99.8714C98.2143 14.7979 96.8555 15.3802 95.7951 16.5448Z" fill="#333333"/>
</svg>
