<svg width="162" height="37" viewBox="0 0 162 37" fill="none" xmlns="http://www.w3.org/2000/svg">
<path d="M162 15.9821C162 6.59926 155.463 0 146.299 0C134.633 0 126.814 8.47583 126.814 20.5797C126.814 30.0251 133.414 36.5618 142.734 36.5618C151.21 36.5618 157.528 32.4646 160.123 25.9279H150.709C149.458 27.9608 146.8 29.2432 143.547 29.2432C138.543 29.2432 135.415 25.9279 135.134 21.2365H161.468C161.812 19.4537 162 17.9212 162 15.9821ZM135.853 14.8874C136.698 10.5713 140.889 7.13095 145.955 7.13095C150.334 7.13095 153.649 10.3211 153.649 14.8874H135.853Z" fill="#333333"/>
<path d="M101.512 35.7174L103.201 26.7099C108.361 27.742 109.143 24.8333 110.488 17.8275L111.145 14.3558C113.021 4.56642 116.806 -0.312654 127.627 1.00094L125.938 10.0085C120.778 8.97635 119.871 12.8859 118.714 18.9534L118.057 22.4251C116.18 32.3396 112.271 37.031 101.512 35.7174Z" fill="#333333"/>
<path d="M88.876 35.7487L95.2563 0.844482H103.67L97.3205 35.7487H88.876Z" fill="#333333"/>
<path d="M40.6794 0.845459H48.8425L51.501 26.0853L62.1974 0.845459H70.298L73.1441 26.3355L83.4652 0.845459H91.597L76.8034 35.7496H67.5457L64.5432 11.7296L54.3159 35.7496H45.3709L40.6794 0.845459Z" fill="#333333"/>
<path d="M10.1854 10.1032L0.489746 19.3609H16.9723L18.6925 15.3263H10.3417L15.5649 10.1032L12.5311 4.88008H26.6992L13.6257 35.7496H18.5361L33.3297 0.845459H4.7433L10.1854 10.1032Z" fill="#333333"/>
</svg>
